<svg width="40" height="29" viewBox="0 0 40 29" fill="none" xmlns="http://www.w3.org/2000/svg">
<path d="M22.7273 17.2188C21.2121 17.2188 19.9242 16.6901 18.8636 15.6328C17.803 14.5755 17.2727 13.2917 17.2727 11.7812C17.2727 10.2708 17.803 8.98698 18.8636 7.92969C19.9242 6.8724 21.2121 6.34375 22.7273 6.34375C24.2424 6.34375 25.5303 6.8724 26.5909 7.92969C27.6515 8.98698 28.1818 10.2708 28.1818 11.7812C28.1818 13.2917 27.6515 14.5755 26.5909 15.6328C25.5303 16.6901 24.2424 17.2188 22.7273 17.2188ZM8.18182 23.5625C7.43182 23.5625 6.78977 23.2963 6.25568 22.7639C5.72159 22.2314 5.45455 21.5914 5.45455 20.8438V2.71875C5.45455 1.97109 5.72159 1.33105 6.25568 0.798633C6.78977 0.266211 7.43182 0 8.18182 0H37.2727C38.0227 0 38.6648 0.266211 39.1989 0.798633C39.733 1.33105 40 1.97109 40 2.71875V20.8438C40 21.5914 39.733 22.2314 39.1989 22.7639C38.6648 23.2963 38.0227 23.5625 37.2727 23.5625H8.18182ZM12.7273 20.8438H32.7273C32.7273 19.575 33.1667 18.5026 34.0455 17.6266C34.9242 16.7505 36 16.3125 37.2727 16.3125V7.25C36 7.25 34.9242 6.81198 34.0455 5.93594C33.1667 5.0599 32.7273 3.9875 32.7273 2.71875H12.7273C12.7273 3.9875 12.2879 5.0599 11.4091 5.93594C10.5303 6.81198 9.45455 7.25 8.18182 7.25V16.3125C9.45455 16.3125 10.5303 16.7505 11.4091 17.6266C12.2879 18.5026 12.7273 19.575 12.7273 20.8438ZM34.5455 29H2.72727C1.97727 29 1.33523 28.7338 0.801136 28.2014C0.267045 27.6689 0 27.0289 0 26.2812V5.4375H2.72727V26.2812H34.5455V29Z" fill="white"/>
</svg>
