<svg width="16" height="16" viewBox="0 0 16 16" fill="none" xmlns="http://www.w3.org/2000/svg">
<path d="M9.27911 11.7671L5.96418 10.0493C5.38791 10.6344 4.56785 11 3.65789 11C1.91384 11 0.5 9.65683 0.5 8C0.5 6.34314 1.91384 5 3.65789 5C4.5678 5 5.38783 5.36559 5.96409 5.95059L9.27911 4.23285C9.21713 3.99831 9.18421 3.7528 9.18421 3.5C9.18421 1.84314 10.5981 0.5 12.3421 0.5C14.0861 0.5 15.5 1.84314 15.5 3.5C15.5 5.15686 14.0861 6.5 12.3421 6.5C11.4322 6.5 10.6121 6.13438 10.0358 5.54935L6.72087 7.2671C6.78287 7.50163 6.81579 7.74718 6.81579 8C6.81579 8.25282 6.78288 8.4983 6.7209 8.73283L10.0359 10.4506C10.6121 9.86563 11.4322 9.5 12.3421 9.5C14.0861 9.5 15.5 10.8432 15.5 12.5C15.5 14.1568 14.0861 15.5 12.3421 15.5C10.5981 15.5 9.18421 14.1568 9.18421 12.5C9.18421 12.2472 9.21713 12.0016 9.27911 11.7671ZM3.65789 9.5C4.52992 9.5 5.23684 8.82845 5.23684 8C5.23684 7.17155 4.52992 6.5 3.65789 6.5C2.78587 6.5 2.07895 7.17155 2.07895 8C2.07895 8.82845 2.78587 9.5 3.65789 9.5ZM12.3421 5C13.2142 5 13.9211 4.32843 13.9211 3.5C13.9211 2.67157 13.2142 2 12.3421 2C11.4701 2 10.7632 2.67157 10.7632 3.5C10.7632 4.32843 11.4701 5 12.3421 5ZM12.3421 14C13.2142 14 13.9211 13.3285 13.9211 12.5C13.9211 11.6715 13.2142 11 12.3421 11C11.4701 11 10.7632 11.6715 10.7632 12.5C10.7632 13.3285 11.4701 14 12.3421 14Z" fill="#FFFFFF"/>
</svg>
