<svg xmlns="http://www.w3.org/2000/svg" xmlns:xlink="http://www.w3.org/1999/xlink" preserveAspectRatio="xMidYMid meet" width="68" height="89" viewBox="0 0 68 89" style="width:100%;height:100%"><defs><animate repeatCount="indefinite" dur="2.3333333s" begin="0s" xlink:href="#_R_G_L_1_G" fill="freeze" attributeName="opacity" from="1" to="1" keyTimes="0;0.1144;0.2431;0.5148;0.6434989;1" values="1;1;0;0;1;1" keySplines="0.167 0.167 0.833 0.833;0.167 0.167 0.833 0.833;0.167 0.167 0.833 0.833;0.167 0.167 0.833 0.833;0 0 0 0" calcMode="spline"/><animate repeatCount="indefinite" dur="2.3333333s" begin="0s" xlink:href="#_R_G_L_0_G" fill="freeze" attributeName="opacity" from="1" to="1" keyTimes="0;0.1144;0.3861;0.5148019;1" values="1;0;0;1;1" keySplines="0.167 0.167 0.833 0.833;0.167 0.167 0.833 0.833;0.167 0.167 0.833 0.833;0 0 0 0" calcMode="spline"/><animate attributeType="XML" attributeName="opacity" dur="2s" from="0" to="1" xlink:href="#time_group"/></defs><g id="_R_G"><g id="_R_G_L_2_G" transform=" translate(33.85, 44.05) scale(0.19, 0.19) translate(-200.113, -258.856)"><path id="_R_G_L_2_G_D_0_P_0" fill="#212121" fill-opacity="1" fill-rule="nonzero" d=" M77.42 286.55 C85.96,295.59 99.51,303.13 116.09,303.13 C132.66,303.13 137.18,296.6 137.18,289.57 C137.18,282.53 126.63,277.51 112.57,274 C92.48,269.48 66.87,263.95 66.87,236.33 C66.87,208.71 84.45,199.67 113.07,199.67 C141.7,199.67 148.73,205.7 160.79,216.74 C160.79,216.74 146.22,235.83 146.22,235.83 C136.18,226.79 123.12,222.27 111.07,222.27 C99.01,222.27 92.99,227.29 92.99,234.82 C92.99,242.36 103.53,245.87 117.59,248.89 C137.68,253.41 163.3,259.43 163.3,286.55 C163.3,313.67 147.23,325.73 114.08,325.73 C80.93,325.73 73.9,317.69 62.35,306.14 C62.35,306.14 76.91,286.05 76.91,286.05 C76.91,286.05 77.42,286.55 77.42,286.55z "/><path id="_R_G_L_2_G_D_1_P_0" fill="#212121" fill-opacity="1" fill-rule="nonzero" d=" M274.79 323.22 C274.79,323.22 253.19,239.35 253.19,239.35 C253.19,239.35 232.1,323.22 232.1,323.22 C232.1,323.22 204.48,323.22 204.48,323.22 C204.48,323.22 169.32,200.67 169.32,200.67 C169.32,200.67 198.45,200.67 198.45,200.67 C198.45,200.67 220.05,289.06 220.05,289.06 C220.05,289.06 243.15,200.67 243.15,200.67 C243.15,200.67 263.74,200.67 263.74,200.67 C263.74,200.67 286.84,289.06 286.84,289.06 C286.84,289.06 307.93,200.67 307.93,200.67 C307.93,200.67 337.06,200.67 337.06,200.67 C337.06,200.67 302.41,323.22 302.41,323.22 C302.41,323.22 274.79,323.22 274.79,323.22z "/></g><g id="_R_G_L_1_G" transform=" translate(33.85, 44.05) scale(0.19, 0.19) translate(-200.113, -258.856)"><path id="_R_G_L_1_G_D_0_P_0" fill="#195aab" fill-opacity="1" fill-rule="nonzero" d=" M200.46 482.42 C133.16,482.42 72.9,455.3 30.71,406.58 C30.71,406.58 49.79,390.01 49.79,390.01 C86.96,433.2 140.19,456.8 199.96,456.8 C259.72,456.8 313.46,433.2 350.62,390.01 C350.62,390.01 369.71,406.58 369.71,406.58 C328.02,455.3 267.25,482.42 199.96,482.42 C199.96,482.42 200.46,482.42 200.46,482.42z "/><path id="_R_G_L_1_G_D_1_P_0" fill="#195aab" fill-opacity="1" fill-rule="nonzero" d=" M50.3 132.37 C50.3,132.37 31.21,115.8 31.21,115.8 C72.9,67.08 133.16,39.96 200.96,39.96 C268.76,39.96 329.03,66.58 370.71,115.8 C370.71,115.8 351.63,132.37 351.63,132.37 C314.46,89.18 261.23,65.58 200.96,65.58 C140.7,65.58 87.46,89.18 50.8,132.37 C50.8,132.37 50.3,132.37 50.3,132.37z "/></g><g id="_R_G_L_0_G" transform=" translate(33.85, 44.05) scale(0.19, 0.19) translate(-200.113, -258.856)"><path id="_R_G_L_0_G_D_0_P_0" fill="#195aab" fill-opacity="1" fill-rule="nonzero" d=" M200.46 414.12 C153.75,414.12 111.07,394.03 83.44,358.87 C83.44,358.87 103.53,343.3 103.53,343.3 C126.13,372.43 161.79,389 200.46,389 C239.13,389 274.79,372.43 297.89,343.3 C297.89,343.3 317.98,358.87 317.98,358.87 C290.36,394.03 247.67,414.12 200.96,414.12 C200.96,414.12 200.46,414.12 200.46,414.12z "/><path id="_R_G_L_0_G_D_1_P_0" fill="#195aab" fill-opacity="1" fill-rule="nonzero" d=" M103.53 179.58 C103.53,179.58 83.44,164.01 83.44,164.01 C111.07,128.86 153.75,108.77 200.46,108.77 C247.17,108.77 289.85,128.86 317.48,164.01 C317.48,164.01 297.39,179.58 297.39,179.58 C274.79,150.45 239.13,133.88 199.96,133.88 C160.79,133.88 125.63,150.45 103.03,179.58 C103.03,179.58 103.53,179.58 103.53,179.58z "/></g></g><g id="time_group"/></svg>