<?xml version="1.0" encoding="UTF-8"?><svg id="b" xmlns="http://www.w3.org/2000/svg" width="67.7" height="88.1" viewBox="0 0 67.7 88.1"><g id="c"><path d="M33.8,74.5c-9.3,0-17.8-4-23.3-11l4-3.1c4.5,5.8,11.6,9.1,19.3,9.1s14.8-3.3,19.4-9.1l4,3.1c-5.5,7-14,11-23.3,11h-.1Z" fill="#fff"/><path d="M14.5,27.8l-4-3.1c5.5-7,14-11,23.3-11s17.8,4,23.3,11l-4,3.1c-4.5-5.8-11.6-9.1-19.4-9.1s-14.8,3.3-19.3,9.1h.1Z" fill="#fff"/><path d="M33.8,88.1c-13.4,0-25.4-5.4-33.8-15.1l3.8-3.3c7.4,8.6,18,13.3,29.9,13.3s22.6-4.7,30-13.3l3.8,3.3c-8.3,9.7-20.4,15.1-33.8,15.1h.1Z" fill="#fff"/><path d="M3.9,18.4L.1,15.1C8.4,5.4,20.4,0,33.9,0s25.5,5.3,33.8,15.1l-3.8,3.3c-7.4-8.6-18-13.3-30-13.3S11.3,9.8,4,18.4h-.1Z" fill="#fff"/><g isolation="isolate"><path d="M9.26,49.07c1.72,1.79,4.38,3.29,7.74,3.29,2.85,0,4.24-1.35,4.24-2.74,0-1.83-2.12-2.44-4.93-3.1-3.98-.92-9.09-2.01-9.09-7.45,0-4.05,3.51-7.34,9.24-7.34,3.87,0,7.09,1.17,9.5,3.4l-2.88,3.8c-1.97-1.83-4.6-2.67-6.98-2.67s-3.58,1.02-3.58,2.49c0,1.64,2.05,2.15,4.86,2.81,4.02.91,9.13,2.12,9.13,7.52,0,4.46-3.18,7.81-9.75,7.81-4.67,0-8.03-1.57-10.33-3.87l2.85-3.95Z" fill="#fff"/><path d="M48.64,56.44l-4.27-16.73-4.24,16.73h-5.51l-6.98-24.36h5.81l4.27,17.6,4.64-17.6h4.06l4.6,17.6,4.24-17.6h5.84l-6.94,24.36h-5.51Z" fill="#fff"/></g></g></svg>