<svg width="20" height="20" viewBox="0 0 20 20" fill="none" xmlns="http://www.w3.org/2000/svg">
<path d="M10.0009 3.77378C11.9584 2.01667 14.9834 2.075 16.8689 3.96447C18.7544 5.85393 18.8192 8.86417 17.0655 10.8275L9.99994 17.9042L2.9345 10.8275C1.18089 8.86417 1.24644 5.84918 3.13115 3.96447C5.01799 2.07763 8.03768 2.01406 10.0009 3.77378ZM15.6892 5.14175C14.4399 3.88995 12.423 3.83918 11.1142 5.01406L10.0016 6.0127L8.88844 5.01484C7.57584 3.83831 5.56257 3.89007 4.30966 5.14298C3.06821 6.38443 3.00589 8.37275 4.14996 9.686L9.99994 15.5453L15.8501 9.686C16.9946 8.37225 16.9325 6.38771 15.6892 5.14175Z" fill="black"/>
</svg>
