<svg width="20" height="20" viewBox="0 0 20 20" fill="none" xmlns="http://www.w3.org/2000/svg">
<path d="M10 18.3333C5.39765 18.3333 1.66669 14.6023 1.66669 10C1.66669 5.39763 5.39765 1.66667 10 1.66667C14.6024 1.66667 18.3334 5.39763 18.3334 10C18.3334 14.6023 14.6024 18.3333 10 18.3333ZM10 7.91667C10.6904 7.91667 11.25 7.35703 11.25 6.66667C11.25 5.97631 10.6904 5.41667 10 5.41667C9.30969 5.41667 8.75002 5.97631 8.75002 6.66667C8.75002 7.35703 9.30969 7.91667 10 7.91667ZM11.6667 12.5H10.8334V8.75H8.33335V10.4167H9.16669V12.5H8.33335V14.1667H11.6667V12.5Z" fill="black"/>
</svg>
