<svg width="20" height="20" viewBox="0 0 20 20" fill="none" xmlns="http://www.w3.org/2000/svg">
<path d="M8.91762 4.55405C6.48639 4.55405 4.5155 6.55514 4.5155 9.02363C4.5155 11.4921 6.48639 13.4932 8.91762 13.4932C11.3489 13.4932 13.3198 11.4921 13.3198 9.02363C13.3198 6.55514 11.3489 4.55405 8.91762 4.55405ZM2 9.02363C2 5.14458 5.09709 2 8.91762 2C12.7381 2 15.8353 5.14458 15.8353 9.02363C15.8353 10.5018 15.3855 11.8733 14.6174 13.0048L19 17.194L17.2213 19L12.8387 14.8107C11.7243 15.5906 10.3735 16.0473 8.91762 16.0473C5.09709 16.0473 2 12.9027 2 9.02363Z" fill="black"/>
</svg>
