<svg width="20" height="20" viewBox="0 0 20 20" fill="none" xmlns="http://www.w3.org/2000/svg">
<path d="M8.13838 3.00476C5.27811 3.00476 2.95941 5.35899 2.95941 8.2631C2.95941 11.1672 5.27811 13.5214 8.13838 13.5214C10.9987 13.5214 13.3174 11.1672 13.3174 8.2631C13.3174 5.35899 10.9987 3.00476 8.13838 3.00476ZM0 8.2631C0 3.69951 3.64363 0 8.13838 0C12.6331 0 16.2768 3.69951 16.2768 8.2631C16.2768 10.0021 15.7476 11.6157 14.844 12.9468L20 17.8753L17.9074 20L12.7514 15.0714C11.4403 15.9889 9.85114 16.5262 8.13838 16.5262C3.64363 16.5262 0 12.8267 0 8.2631Z" fill="black"/>
<defs>
<rect width="20" height="20" fill="white"/>
</defs>
</svg>
