<svg width="20" height="20" viewBox="0 0 20 20" fill="none" xmlns="http://www.w3.org/2000/svg">
<path d="M10 18.3333C5.39765 18.3333 1.66669 14.6023 1.66669 9.99999C1.66669 5.39761 5.39765 1.66666 10 1.66666C14.6024 1.66666 18.3334 5.39761 18.3334 9.99999C18.3334 14.6023 14.6024 18.3333 10 18.3333ZM10 16.6667C13.6819 16.6667 16.6667 13.6819 16.6667 9.99999C16.6667 6.31809 13.6819 3.33332 10 3.33332C6.31812 3.33332 3.33335 6.31809 3.33335 9.99999C3.33335 13.6819 6.31812 16.6667 10 16.6667ZM8.8516 7.01215L12.9174 9.72266C13.0705 9.82474 13.1119 10.0317 13.0098 10.1849C12.9854 10.2215 12.9539 10.2529 12.9174 10.2773L8.8516 12.9878C8.69844 13.09 8.49144 13.0486 8.38935 12.8954C8.35285 12.8407 8.33335 12.7763 8.33335 12.7105V7.2895C8.33335 7.1054 8.4826 6.95616 8.66669 6.95616C8.73252 6.95616 8.79685 6.97564 8.8516 7.01215Z" fill="black"/>
</svg>
