<svg width="20" height="20" viewBox="0 0 20 20" fill="none" xmlns="http://www.w3.org/2000/svg">
<path d="M10 18.3333C5.39765 18.3333 1.66669 14.6023 1.66669 10C1.66669 5.39763 5.39765 1.66667 10 1.66667C14.6024 1.66667 18.3334 5.39763 18.3334 10C18.3334 14.6023 14.6024 18.3333 10 18.3333ZM9.16669 12.5V14.1667H10.8334V12.5H9.16669ZM10.8334 11.1293C12.0381 10.7707 12.9167 9.65459 12.9167 8.33334C12.9167 6.7225 11.6109 5.41667 10 5.41667C8.58502 5.41667 7.40533 6.42433 7.13945 7.76122L8.77402 8.08815C8.88802 7.5152 9.3936 7.08334 10 7.08334C10.6904 7.08334 11.25 7.64298 11.25 8.33334C11.25 9.02367 10.6904 9.58334 10 9.58334C9.53977 9.58334 9.16669 9.95642 9.16669 10.4167V11.6667H10.8334V11.1293Z" fill="currentColor"/>
</svg>
