<svg width="20" height="20" viewBox="0 0 20 20" fill="none" xmlns="http://www.w3.org/2000/svg">
<path d="M10 18.3333C5.39765 18.3333 1.66669 14.6023 1.66669 10C1.66669 5.39763 5.39765 1.66667 10 1.66667C14.6024 1.66667 18.3334 5.39763 18.3334 10C18.3334 14.6023 14.6024 18.3333 10 18.3333ZM10 16.6667C13.6819 16.6667 16.6667 13.6819 16.6667 10C16.6667 6.3181 13.6819 3.33334 10 3.33334C6.31812 3.33334 3.33335 6.3181 3.33335 10C3.33335 13.6819 6.31812 16.6667 10 16.6667ZM9.16669 12.5H10.8334V14.1667H9.16669V12.5ZM10.8334 11.1293V11.6667H9.16669V10.4167C9.16669 9.95642 9.53977 9.58334 10 9.58334C10.6904 9.58334 11.25 9.02367 11.25 8.33334C11.25 7.64298 10.6904 7.08334 10 7.08334C9.3936 7.08334 8.88802 7.5152 8.77402 8.08815L7.13945 7.76122C7.40533 6.42433 8.58502 5.41667 10 5.41667C11.6109 5.41667 12.9167 6.7225 12.9167 8.33334C12.9167 9.65459 12.0381 10.7707 10.8334 11.1293Z" fill="currentColor"/>
</svg>
