<svg width="20" height="20" viewBox="0 0 20 20" fill="none" xmlns="http://www.w3.org/2000/svg">
<path d="M2.78288 14.1668C2.42267 13.5429 2.15231 12.8918 1.96777 12.2284C2.77817 11.8149 3.3331 10.9723 3.3331 10.0002C3.3331 9.02875 2.779 8.18667 1.96961 7.77284C2.34187 6.43043 3.04881 5.18023 4.05395 4.15834C4.81725 4.65347 5.82446 4.71278 6.66643 4.22667C7.50841 3.74055 7.96064 2.83863 7.9135 1.93003C9.30108 1.5705 10.7372 1.58337 12.0859 1.93218C12.0396 2.84005 12.4917 3.74093 13.3331 4.22667C14.1751 4.71277 15.1822 4.65347 15.9455 4.15839C16.4277 4.64988 16.8564 5.20959 17.2167 5.83351C17.5768 6.45742 17.8472 7.10854 18.0317 7.7719C17.2213 8.18539 16.6664 9.028 16.6664 10.0002C16.6664 10.9717 17.2205 11.8137 18.0299 12.2275C17.6577 13.5699 16.9507 14.8201 15.9456 15.842C15.1822 15.3469 14.1751 15.2876 13.3331 15.7737C12.4911 16.2598 12.0389 17.1618 12.086 18.0703C10.6985 18.4298 9.26233 18.417 7.91361 18.0682C7.95992 17.1603 7.50774 16.2594 6.66643 15.7737C5.82448 15.2876 4.81732 15.3468 4.05403 15.8419C3.57181 15.3504 3.1431 14.7908 2.78288 14.1668ZM7.49976 14.3303C8.40925 14.8554 9.06242 15.6856 9.37525 16.6383C9.7905 16.6778 10.2085 16.6783 10.6238 16.6396C10.9365 15.6864 11.5898 14.8557 12.4997 14.3303C13.4097 13.8049 14.4558 13.6546 15.4377 13.8603C15.6788 13.52 15.8873 13.1577 16.0607 12.7783C15.3922 12.0311 14.9997 11.0503 14.9997 10.0002C14.9997 8.95 15.3922 7.96933 16.0607 7.22208C15.974 7.03375 15.8782 6.84852 15.7732 6.66684C15.6683 6.48516 15.5558 6.30957 15.4361 6.14035C14.4547 6.34563 13.4092 6.19512 12.4997 5.67004C11.5902 5.14496 10.9372 4.31473 10.6242 3.36213C10.2091 3.32262 9.791 3.32205 9.37575 3.36077C9.063 4.31393 8.40966 5.1447 7.49976 5.67004C6.58983 6.19539 5.54371 6.34578 4.5619 6.14003C4.32071 6.48034 4.11219 6.84264 3.9388 7.22198C4.60734 7.96926 4.99977 8.95 4.99977 10.0002C4.99977 11.0503 4.60736 12.031 3.9388 12.7783C4.02556 12.9666 4.12136 13.1518 4.22626 13.3335C4.33116 13.5152 4.44367 13.6908 4.56343 13.86C5.54481 13.6548 6.59031 13.8052 7.49976 14.3303ZM9.99975 12.5002C8.61908 12.5002 7.49976 11.3809 7.49976 10.0002C7.49976 8.6195 8.61908 7.50018 9.99975 7.50018C11.3805 7.50018 12.4997 8.6195 12.4997 10.0002C12.4997 11.3809 11.3805 12.5002 9.99975 12.5002ZM9.99975 10.8335C10.46 10.8335 10.8331 10.4604 10.8331 10.0002C10.8331 9.53992 10.46 9.16683 9.99975 9.16683C9.5395 9.16683 9.16641 9.53992 9.16641 10.0002C9.16641 10.4604 9.5395 10.8335 9.99975 10.8335Z" fill="currentColor"/>
</svg>
