<svg width="20" height="20" viewBox="0 0 20 20" fill="none" xmlns="http://www.w3.org/2000/svg">
<path d="M8.29503 1.84217C9.40635 1.60953 10.5673 1.60219 11.7041 1.83988C11.8516 2.80617 12.4207 3.6991 13.3331 4.22586C14.2454 4.75261 15.3034 4.79903 16.2139 4.44358C16.9882 5.30932 17.5623 6.31836 17.9164 7.3971C17.1544 8.00799 16.6664 8.94667 16.6664 9.99933C16.6664 11.0527 17.1549 11.9918 17.9178 12.6027C17.7417 13.1363 17.5087 13.6602 17.2166 14.166C16.9245 14.6719 16.5874 15.1356 16.2133 15.5549C15.3029 15.1997 14.2453 15.2463 13.3331 15.7728C12.4214 16.2992 11.8525 17.1912 11.7044 18.1566C10.5932 18.3892 9.43227 18.3965 8.29538 18.1588C8.14792 17.1926 7.57878 16.2996 6.66641 15.7728C5.75405 15.2461 4.69618 15.1997 3.78562 15.5552C3.01133 14.6894 2.43723 13.6803 2.08305 12.6016C2.84512 11.9908 3.33308 11.052 3.33308 9.99933C3.33308 8.94608 2.84455 8.00689 2.08173 7.39604C2.25779 6.86235 2.4908 6.33858 2.78287 5.83269C3.07494 5.32681 3.41204 4.86313 3.78619 4.44381C4.69663 4.79901 5.75424 4.7525 6.66641 4.22586C7.57805 3.69952 8.14702 2.80758 8.29503 1.84217ZM9.99977 12.4993C11.3804 12.4993 12.4998 11.3801 12.4998 9.99933C12.4998 8.61867 11.3804 7.49936 9.99977 7.49936C8.61902 7.49936 7.49974 8.61867 7.49974 9.99933C7.49974 11.3801 8.61902 12.4993 9.99977 12.4993Z" fill="black"/>
</svg>
