<svg width="20" height="20" viewBox="0 0 20 20" fill="none" xmlns="http://www.w3.org/2000/svg">
<path d="M14.6814 4.9734L15.8926 3.76225L17.0711 4.94075L15.8599 6.1519C16.8863 7.43497 17.5 9.06248 17.5 10.8333C17.5 14.9755 14.1422 18.3333 10 18.3333C5.85787 18.3333 2.5 14.9755 2.5 10.8333C2.5 6.69118 5.85787 3.33331 10 3.33331C11.7708 3.33331 13.3983 3.94704 14.6814 4.9734ZM10 16.6666C13.2217 16.6666 15.8333 14.055 15.8333 10.8333C15.8333 7.61165 13.2217 4.99998 10 4.99998C6.77834 4.99998 4.16667 7.61165 4.16667 10.8333C4.16667 14.055 6.77834 16.6666 10 16.6666ZM9.16667 6.66665H10.8333V11.6666H9.16667V6.66665ZM6.66667 0.833313H13.3333V2.49998H6.66667V0.833313Z" fill="currentColor"/>
</svg>
