<svg width="19" height="20" viewBox="0 0 19 20" fill="none" xmlns="http://www.w3.org/2000/svg">
<g clip-path="url(#clip0_7342_786)">
<path d="M4.24706 13.4444H0.894118C0.447059 13.4444 0 13.1111 0 12.5555V7.44443C0 6.99999 0.335294 6.55554 0.894118 6.55554H4.24706L8.82941 2.88888C9.05294 2.77776 9.27647 2.77776 9.38823 2.88888V3.1111V16.6667C9.38823 16.8889 9.16471 17.1111 8.94118 17.1111C8.71765 17.1111 8.71765 17.1111 8.71765 17.1111L4.13529 13.4444H4.24706ZM11.8471 15.1111L10.2824 13.5555C11.2882 12.7778 12.0706 11.4444 12.0706 9.99999C12.0706 8.55554 11.1765 6.99999 9.94706 6.22221L11.5118 4.66665C13.1882 5.88888 14.1941 7.77776 14.1941 9.99999C14.1941 12.2222 13.3 13.8889 11.8471 15.1111Z" fill="black"/>
<path d="M14.7529 19.2222L13.1882 17.6666C21.0118 9.99998 13.5235 2.2222 13.1882 1.88887L14.7529 0.333313C14.7529 0.333313 24.1412 9.99998 14.7529 19.2222Z" fill="black"/>
</g>
<defs>
<clipPath id="clip0_7342_786">
<rect width="19" height="20" fill="white"/>
</clipPath>
</defs>
</svg>
