<svg width="19" height="20" viewBox="0 0 19 20" fill="none" xmlns="http://www.w3.org/2000/svg">
<path d="M11.8471 15.1111L10.2824 13.5556C11.2883 12.7778 12.0706 11.4445 12.0706 10C12.0706 8.55558 11.1765 7.00002 9.94708 6.22224L11.5118 4.66669C13.1883 5.88891 14.1941 7.7778 14.1941 10C14.1941 12.2222 13.3 13.8889 11.8471 15.1111Z" fill="currentColor"/>
<path d="M14.7529 19.2222L13.1882 17.6666C21.0118 9.99998 13.5235 2.2222 13.1882 1.88887L14.7529 0.333313C14.7529 0.333313 24.1412 9.99998 14.7529 19.2222Z" fill="currentColor"/>
<path d="M7.82353 5.77777V14.1111L5.25294 12.1111C4.91765 11.8889 4.58235 11.7778 4.24706 11.7778H1.67647V8.22222H4.24706C4.58235 8.22222 5.02941 8.1111 5.25294 7.88888L7.82353 5.88888M9.05294 2.77777H8.82941L4.24706 6.44444H0.894118C0.335294 6.55555 0 6.99999 0 7.44444V12.5555C0 13 0.335294 13.4444 0.894118 13.4444H4.24706L8.82941 17.1111H9.05294C9.27647 17.1111 9.5 16.8889 9.5 16.6667V3.22222V2.99999C9.5 2.99999 9.27647 2.88888 9.16471 2.88888L9.05294 2.77777Z" fill="currentColor"/>
</svg>
