<svg width="285" height="25" viewBox="0 0 285 25" fill="none" xmlns="http://www.w3.org/2000/svg">
<path d="M107.725 0.454886C110.742 0.454886 113.758 0.54101 116.774 0.454886C119.187 0.368762 120.566 1.40225 120.566 4.15823C120.652 9.84244 120.566 15.4405 120.566 21.0386C120.566 23.2778 118.929 24.4836 117.119 24.3974C115.482 24.3113 114.447 23.364 114.447 21.7276C114.361 19.23 114.447 16.8185 114.447 14.3209C114.447 12.1678 114.361 10.0147 114.447 7.86158C114.447 6.91421 114.103 6.56971 113.241 6.65584C111.948 6.74196 110.742 6.74196 109.449 6.82809C109.363 8.03383 109.19 9.32569 109.19 10.5314C109.104 13.718 109.19 16.9046 109.19 20.0912C109.19 20.8663 109.018 21.6415 108.846 22.4166C108.587 23.7946 107.467 24.3113 106.26 24.3974C104.795 24.5697 103.675 23.9668 103.158 22.675C102.813 21.8137 102.727 20.8663 102.727 19.919C102.64 15.9573 102.64 11.9955 102.727 8.03383C102.727 7.00033 102.382 6.65584 101.348 6.65584C99.1932 6.74196 97.0386 6.65584 94.8841 6.65584C94.367 6.65584 93.9361 6.74196 93.419 6.65584C92.6434 6.48359 92.2125 5.70847 92.7296 5.01947C93.6776 3.72761 94.7117 2.52187 95.7459 1.31613C96.4354 0.454886 97.3834 0.454886 98.3314 0.454886C101.52 0.454886 104.623 0.454886 107.725 0.454886Z" fill="#E43D30"/>
<path d="M141.595 12.5981C141.595 15.4402 141.681 18.2823 141.595 21.1244C141.509 23.4497 140.216 24.5693 137.889 24.3971C136.941 24.311 136.338 23.8803 135.821 23.1052C134.011 20.177 132.115 17.2488 130.219 14.3205C129.874 13.7177 129.357 13.2009 129.012 12.5981C128.926 13.2871 128.754 13.8899 128.754 14.5789C128.754 16.8182 128.84 19.0574 128.754 21.2105C128.668 23.4497 127.116 24.7416 124.962 24.311C123.841 24.1387 122.893 23.622 122.635 22.244C122.549 21.555 122.29 20.866 122.29 20.177C122.29 14.9234 122.29 9.66983 122.29 4.50237C122.29 2.09089 122.98 1.0574 124.531 0.540656C126.082 0.0239105 127.375 0.540656 128.409 2.26314C130.133 5.01912 131.856 7.7751 133.494 10.5311C133.752 10.9617 134.011 11.3062 134.269 11.7368C134.442 11.9952 134.7 12.1674 134.873 12.4258C134.959 12.0813 135.045 11.8229 135.045 11.4784C135.045 9.23921 135.045 6.99998 135.045 4.84687C135.045 4.15788 135.131 3.46888 135.304 2.77989C135.734 1.14353 136.596 0.540656 138.234 0.540656C139.871 0.540656 140.733 1.14353 141.164 2.69376C141.336 3.38276 141.509 4.07175 141.509 4.76075C141.595 7.34448 141.595 9.92821 141.595 12.5981Z" fill="#E43D30"/>
<path d="M22.4918 12.5122C22.4918 9.58395 22.4918 6.65573 22.4918 3.7275C22.4918 1.31602 23.2674 0.627027 25.5943 0.540902C27.6627 0.540902 29.731 0.627027 31.7994 0.540902C37.8321 0.368654 42.6583 4.15812 43.3477 11.2203C43.6924 14.9237 42.8306 18.4548 40.0728 21.2969C38.0906 23.2777 35.7637 24.3973 32.9197 24.3973C30.4205 24.3973 28.0074 24.3973 25.5081 24.3973C23.3536 24.3973 22.5779 23.5361 22.5779 21.383C22.4918 18.3686 22.4918 15.4404 22.4918 12.5122ZM28.6968 12.4261C28.6968 14.3208 28.6968 16.2155 28.6968 18.1103C28.6968 18.627 28.8692 18.9715 29.4725 19.0576C33.0921 19.1438 36.2808 18.5409 36.9703 13.9763C37.6597 9.23946 35.6776 5.53611 29.9034 5.88061C29.0416 5.96673 28.6107 6.31123 28.6107 7.2586C28.783 8.98108 28.6968 10.7036 28.6968 12.4261Z" fill="#E43D30"/>
<path d="M44.9852 12.3399C44.9852 9.58395 44.9852 6.82797 44.9852 3.98587C44.9852 1.31601 45.847 0.540894 48.6049 0.540894C50.7594 0.540894 52.9139 0.540894 55.0685 0.540894C61.4459 0.540894 65.8412 5.8806 65.9274 11.3926C66.0135 14.2347 65.755 16.9045 64.1176 19.316C62.0492 22.5026 59.119 24.3112 55.2408 24.3112C52.8278 24.3112 50.5009 24.3112 48.0878 24.3112C46.0194 24.3112 45.0714 23.45 44.9852 21.2969C44.9852 18.3686 44.9852 15.3543 44.9852 12.3399ZM51.1903 12.6844C51.1903 14.4069 51.1903 16.1294 51.1903 17.938C51.1903 18.0241 51.1903 18.1103 51.1903 18.1964C51.1041 18.8854 51.3627 19.2299 52.1383 19.2299C52.9139 19.2299 53.7758 19.316 54.4652 19.1437C57.3092 18.5409 58.5157 17.938 59.4637 14.8375C60.9288 9.58395 57.7401 5.44998 52.483 5.96673C51.6212 6.05285 51.1903 6.39735 51.1903 7.25859C51.1903 8.98108 51.1903 10.7897 51.1903 12.6844Z" fill="#E43D30"/>
<path d="M20.0787 12.5122C20.0787 15.4404 20.0787 18.3687 20.0787 21.2969C20.0787 23.2778 18.8721 24.3974 16.9761 24.3974C15.1663 24.3974 14.0459 23.1916 13.9598 21.1246C13.8736 18.5409 13.9598 16.0433 13.9598 13.4596C13.9598 12.8567 13.8736 12.2538 13.7874 11.5648C13.2703 12.0816 12.7532 12.4261 12.4085 13.029C11.2881 14.5792 11.3743 14.5792 12.4947 16.2156C12.9256 16.9046 13.8736 17.5074 13.4427 18.4548C12.9256 19.4022 11.8914 18.9715 11.1158 18.9715C7.66851 19.0577 8.70269 18.5409 6.72051 21.2108C6.2896 21.8136 5.77251 22.5026 5.3416 23.1055C4.30743 24.5696 2.32525 24.4835 1.1187 23.6222C-0.174021 22.761 -0.346384 20.9524 0.601614 19.4022C1.29107 18.2825 2.0667 17.1629 2.92852 16.1294C3.53179 15.4404 3.44561 14.9237 2.92852 14.3208C2.41143 13.6318 1.80816 12.9428 1.37725 12.2538C0.687796 11.1342 1.03252 10.4452 2.32525 10.3591C2.41143 10.3591 2.49761 10.3591 2.58379 10.3591C4.04888 10.273 5.77251 10.7036 6.97906 10.1007C8.1856 9.49786 8.87505 7.8615 9.82305 6.65576C11.202 4.93327 12.5809 3.21078 14.0459 1.57442C15.2525 0.282555 16.7176 -0.0619423 18.0965 0.627052C19.4754 1.31605 20.1648 2.43566 20.1648 4.07203C19.9925 6.91413 20.0787 9.75623 20.0787 12.5122Z" fill="#E43D30"/>
<path d="M161.417 10.5312C162.623 10.5312 163.83 10.5312 164.95 10.5312C165.984 10.6173 166.415 11.2202 165.898 12.0815C165.209 13.2872 164.347 14.4929 163.485 15.5264C163.14 15.9571 162.365 16.2154 161.848 16.1293C160.727 16.0432 160.124 16.5599 159.607 17.4212C158.4 19.3159 156.935 21.1245 155.729 23.1054C155.125 24.0527 154.436 24.3972 153.402 24.3111C150.299 24.225 147.972 22.5886 146.076 20.4355C142.888 16.7322 142.284 12.3398 144.008 7.77524C145.732 3.21065 149.351 0.799171 154.005 0.110176C157.021 -0.320446 159.779 0.540798 162.365 2.17716C164.433 3.46902 164.261 6.13888 162.279 7.2585C161.158 7.94749 159.865 7.77524 158.745 7.00012C156.418 5.53601 154.091 5.79438 151.851 7.17237C149.782 8.46424 148.576 11.4786 149.265 13.8039C150.041 16.7322 152.281 18.5408 154.953 18.713C155.815 18.7992 156.246 18.6269 156.246 17.5934C156.16 16.0432 156.16 14.4068 156.246 12.8566C156.246 11.2202 156.849 10.6173 158.573 10.5312C159.348 10.5312 160.383 10.5312 161.417 10.5312Z" fill="#E43D30"/>
<path d="M88.7657 0.540678C89.8861 0.540678 91.0064 0.454554 92.1268 0.540678C92.9886 0.626803 93.4195 1.14355 92.9886 1.74642C91.5235 3.89953 90.2308 6.13876 87.1283 6.31101C84.3705 6.56938 82.2159 7.94737 81.4403 10.8756C80.4061 14.4067 82.9915 18.2823 86.6112 18.7129C89.6275 19.0574 92.2992 17.7655 93.5919 14.5789C94.3675 12.6842 95.1432 12.2536 96.7806 12.3397C98.6766 12.4258 99.8831 14.0622 99.3661 15.9569C98.2457 19.9186 95.5741 22.5885 91.6959 24.0526C85.1461 26.4641 77.6483 22.6746 75.8385 16.1292C73.253 7.08613 80.0614 0.36843 86.8697 0.454554C87.5592 0.540678 88.1624 0.454554 88.7657 0.540678C88.7657 0.454554 88.7657 0.454554 88.7657 0.540678Z" fill="#E43D30"/>
<path d="M67.3926 12.4261C67.3926 9.49783 67.3064 6.5696 67.3926 3.64138C67.3926 1.83276 68.6853 0.5409 70.2365 0.368651C71.6154 0.282527 73.0805 1.31602 73.5114 2.86626C73.6838 3.55525 73.6838 4.24425 73.6838 4.93324C73.6838 9.67008 73.6838 14.493 73.6838 19.2299C73.6838 20.1772 73.6838 21.1246 73.4253 21.9859C73.2529 22.6749 72.7358 23.3638 72.2187 23.8806C70.4951 25.3447 67.8235 24.2251 67.3926 21.8997C67.3064 21.4691 67.3926 20.9524 67.3926 20.5217C67.3926 17.7658 67.3926 15.0959 67.3926 12.4261Z" fill="#E43D30"/>
<path d="M212.35 12.9426C212.35 15.7847 212.35 18.713 212.35 21.5551C212.35 22.4163 212.178 23.1914 211.661 23.7943C210.626 25.0001 209.42 25.1723 208.213 24.7417C207.007 24.3111 206.231 23.1914 206.231 21.7273C206.231 19.0575 206.231 16.3876 206.231 13.7178C206.231 13.2871 206.231 12.8565 206.145 12.4259C206.145 12.2537 206.059 11.9953 205.973 11.9953C205.886 11.9953 205.628 12.0814 205.455 12.1675C204.852 13.0288 204.163 13.8039 203.646 14.7513C203.559 14.9235 203.559 15.268 203.732 15.5264C204.163 16.2154 204.68 16.8182 205.111 17.5072C205.283 17.7656 205.455 17.9379 205.542 18.1962C205.973 19.0575 205.714 19.4881 204.766 19.4881C203.818 19.4881 202.956 19.4881 202.008 19.4881C201.75 19.4881 201.405 19.4881 201.146 19.4881C200.543 19.4881 200.112 19.7465 199.767 20.2632C199.078 21.2967 198.302 22.4163 197.613 23.4498C197.01 24.3111 196.234 24.9139 195.027 24.9139C193.821 24.9139 192.959 24.4833 192.356 23.5359C191.753 22.5024 191.666 21.3828 192.356 20.3493C193.045 19.3158 193.821 18.3685 194.51 17.335C194.769 16.9905 194.941 16.7321 195.2 16.3876C195.545 15.8709 195.286 14.9235 194.597 14.6651C194.51 14.6651 194.252 14.7513 194.166 14.8374C193.562 15.6986 192.959 16.5599 192.356 17.4211C190.977 19.3158 189.684 21.2106 188.305 23.1053C187.185 24.7417 186.495 25.4307 183.91 24.5694C179.084 22.9331 176.154 19.4881 175.292 14.4068C174.344 8.20581 178.567 2.09098 184.772 0.62687C188.305 -0.148249 191.58 0.454621 194.683 2.5216C196.493 3.72734 196.406 6.7417 194.51 7.60294C193.39 8.11968 192.356 8.03356 191.235 7.43069C190.115 6.7417 188.995 6.31107 187.616 6.31107C184.772 6.31107 181.842 8.37806 181.238 11.5647C180.549 15.1819 183.134 18.8852 186.84 19.2297C187.099 19.2297 187.357 19.2297 187.53 19.2297C188.047 19.3158 188.305 19.0575 188.305 18.5407C188.305 16.9044 188.391 15.1819 188.219 13.5455C188.133 11.9953 189.167 10.8757 190.805 10.9618C193.218 11.0479 195.545 10.9618 197.958 11.0479C198.647 11.0479 198.992 10.8757 199.509 10.2728C201.663 7.51682 203.904 4.76084 206.145 2.00486C207.179 0.712994 208.558 0.454621 209.937 0.971367C211.316 1.48811 212.178 2.77998 212.178 4.33022C212.35 7.17232 212.35 10.0144 212.35 12.9426Z" fill="#E43D30"/>
<path d="M240.876 12.6845C240.876 15.6988 240.876 18.7132 240.876 21.7275C240.876 23.1055 240.186 23.9668 239.152 24.5696C238.118 25.1725 236.998 24.9141 236.05 24.3113C235.188 23.7084 234.843 22.9333 234.843 21.8998C234.843 19.4883 234.843 16.9907 234.843 14.5792C234.843 13.8902 234.757 13.1151 234.671 12.4261C234.24 12.9429 233.723 13.4596 233.292 13.9764C232.344 15.096 231.396 16.2156 230.448 17.4213C229.586 18.4548 229.586 18.4548 230.534 19.4883C231.137 20.2634 231.827 21.0385 232.43 21.8137C232.689 22.1582 232.947 22.5027 233.206 22.8472C233.809 23.7945 233.378 24.6558 232.344 24.6558C229.241 24.6558 226.139 24.6558 223.036 24.6558C222.433 24.6558 222.002 24.3974 221.83 23.8806C221.571 23.3639 221.916 23.0194 222.175 22.5888C223.123 21.383 224.07 20.2634 225.105 19.0577C225.363 18.7132 225.536 18.5409 225.191 18.1103C223.726 16.3878 222.261 14.5792 220.882 12.7706C220.796 12.6845 220.709 12.6845 220.623 12.6845C220.623 12.7706 220.537 12.8567 220.537 12.9429C220.537 13.2874 220.537 13.718 220.537 14.0625C220.537 16.5601 220.537 19.0577 220.537 21.4692C220.537 22.2443 220.365 23.0194 219.934 23.6223C219.158 24.7419 217.693 25.1725 216.487 24.828C215.366 24.4835 214.418 23.2778 214.332 22.072C214.332 21.9859 214.332 21.8998 214.332 21.8137C214.332 15.8711 214.332 9.92851 214.332 4.07205C214.332 2.69406 214.849 1.66057 216.142 1.0577C217.435 0.368707 218.986 0.713204 220.02 1.91894C221.399 3.55531 222.692 5.27779 224.071 6.91416C225.105 8.20602 226.225 9.49788 227.259 10.7898C227.604 11.3065 227.862 11.2204 228.207 10.7898C229.328 9.41176 230.448 8.03377 231.568 6.74191C232.947 5.01942 234.326 3.38306 235.791 1.7467C236.567 0.885453 237.515 0.540955 238.721 0.885453C240.273 1.4022 240.962 2.26344 240.962 3.8998C240.876 6.82803 240.876 9.75626 240.876 12.6845Z" fill="#E43D30"/>
<path d="M261.732 24.9141C260.353 24.9141 258.974 24.9141 257.595 24.9141C257.337 24.9141 257.078 24.9141 256.906 24.9141C255.872 24.8279 255.613 24.4834 256.216 23.6222C256.906 22.5887 257.681 21.5552 258.457 20.5217C259.06 19.6605 259.836 19.2299 261.043 19.2299C262.335 19.316 263.714 19.2299 265.007 19.2299C265.524 19.2299 266.127 19.1437 266.731 19.0576C267.937 18.7992 268.282 17.5074 267.42 16.6461C267.075 16.3016 266.644 16.0433 266.213 15.871C265.093 15.3543 263.973 14.9237 262.766 14.4069C261.473 13.8902 260.267 13.2873 259.233 12.3399C255.699 9.15332 256.647 4.15811 260.095 1.83275C261.387 0.885387 262.939 0.454765 264.49 0.454765C266.041 0.368641 267.592 0.368641 269.144 1.05764C270.953 1.83275 272.419 2.95237 273.367 4.67486C274.142 6.13897 273.884 7.51696 272.677 8.46433C271.643 9.32557 269.833 9.23945 268.799 8.11983C268.368 7.60308 267.937 7.08634 267.506 6.56959C266.731 5.62222 265.524 5.36385 264.404 5.79447C263.197 6.31122 262.852 7.68921 263.8 8.55045C264.49 9.23945 265.438 9.67007 266.3 10.1007C267.937 10.9619 269.661 11.5648 271.212 12.6844C272.16 13.3734 273.108 14.2347 273.453 15.3543C274.659 18.9715 273.625 23.0193 269.23 24.3973C268.023 24.7418 266.731 25.0002 265.438 24.9141C264.231 24.8279 263.025 24.9141 261.732 24.9141Z" fill="#E43D30"/>
<path d="M242.858 12.7703C242.858 9.49758 242.858 6.31098 242.858 3.03826C242.858 1.31577 243.461 0.712903 245.185 0.626778C248.201 0.626778 251.304 0.540654 254.32 0.626778C256.044 0.626778 257.251 1.83252 257.251 3.29663C257.251 4.84687 256.13 6.05261 254.579 6.05261C252.941 6.05261 251.304 6.05261 249.753 6.05261C249.063 6.05261 248.891 6.31098 248.977 6.91385C248.977 7.68897 248.977 8.55022 248.977 9.32534C248.977 9.92821 249.149 10.1005 249.753 10.0143C250.701 10.0143 251.649 10.0143 252.597 10.0143C254.062 10.0143 255.182 11.0478 255.268 12.4258C255.355 13.8038 254.32 15.0957 252.769 15.1818C251.735 15.2679 250.787 15.1818 249.753 15.1818C249.236 15.1818 248.977 15.2679 248.977 15.8708C249.063 16.9043 249.063 18.0239 249.149 19.1435C250.097 19.1435 251.132 19.2296 252.166 19.2296C253.372 19.2296 254.665 19.2296 255.872 19.2296C256.13 19.2296 256.475 19.2296 256.733 19.2296C257.164 19.3158 257.337 19.6603 257.078 20.0909C256.216 21.3827 255.355 22.6746 254.407 23.9665C253.889 24.6555 253.028 25 252.166 25C249.753 25 247.426 25 245.013 25C243.548 25 242.944 24.311 242.944 22.8469C242.772 19.4019 242.858 16.043 242.858 12.7703Z" fill="#E43D30"/>
<path d="M274.918 1.05772H276.383V5.36393H277.417V1.05772H278.796V0.110352H274.918V1.05772Z" fill="#E43D30"/>
<path d="M283.019 0.110352L281.985 3.72757L280.864 0.110352H279.399V5.36393H280.347V1.66059L281.554 5.36393H282.329L283.536 1.66059V5.36393H284.484V0.110352H283.019Z" fill="#E43D30"/>
</svg>
