<svg width="20" height="20" viewBox="0 0 20 20" fill="none" xmlns="http://www.w3.org/2000/svg">
<path d="M14.167 5.00002H18.3337V6.66669H16.667V17.5C16.667 17.9603 16.2939 18.3334 15.8337 18.3334H4.16699C3.70676 18.3334 3.33366 17.9603 3.33366 17.5V6.66669H1.66699V5.00002H5.83366V2.50002C5.83366 2.03979 6.20676 1.66669 6.66699 1.66669H13.3337C13.7939 1.66669 14.167 2.03979 14.167 2.50002V5.00002ZM15.0003 6.66669H5.00033V16.6667H15.0003V6.66669ZM7.50033 9.16669H9.16699V14.1667H7.50033V9.16669ZM10.8337 9.16669H12.5003V14.1667H10.8337V9.16669ZM7.50033 3.33335V5.00002H12.5003V3.33335H7.50033Z" fill="black"/>
</svg>
