<svg width="20" height="20" viewBox="0 0 20 20" fill="none" xmlns="http://www.w3.org/2000/svg">
<path d="M10.9338 14.1857L7.43473 12.277C6.82645 12.9271 5.96083 13.3334 5.00033 13.3334C3.15938 13.3334 1.66699 11.8409 1.66699 10C1.66699 8.15907 3.15938 6.66669 5.00033 6.66669C5.96078 6.66669 6.82637 7.0729 7.43464 7.7229L10.9338 5.8143C10.8684 5.5537 10.8337 5.28091 10.8337 5.00002C10.8337 3.15907 12.3261 1.66669 14.167 1.66669C16.0079 1.66669 17.5003 3.15907 17.5003 5.00002C17.5003 6.84097 16.0079 8.33335 14.167 8.33335C13.2065 8.33335 12.3409 7.92711 11.7326 7.27707L8.23347 9.18569C8.29891 9.44627 8.33366 9.7191 8.33366 10C8.33366 10.2809 8.29892 10.5537 8.2335 10.8143L11.7327 12.7229C12.3409 12.0729 13.2065 11.6667 14.167 11.6667C16.0079 11.6667 17.5003 13.1591 17.5003 15C17.5003 16.8409 16.0079 18.3334 14.167 18.3334C12.3261 18.3334 10.8337 16.8409 10.8337 15C10.8337 14.7191 10.8684 14.4463 10.9338 14.1857ZM5.00033 11.6667C5.9208 11.6667 6.66699 10.9205 6.66699 10C6.66699 9.07952 5.9208 8.33335 5.00033 8.33335C4.07985 8.33335 3.33366 9.07952 3.33366 10C3.33366 10.9205 4.07985 11.6667 5.00033 11.6667ZM14.167 6.66669C15.0875 6.66669 15.8337 5.9205 15.8337 5.00002C15.8337 4.07955 15.0875 3.33335 14.167 3.33335C13.2465 3.33335 12.5003 4.07955 12.5003 5.00002C12.5003 5.9205 13.2465 6.66669 14.167 6.66669ZM14.167 16.6667C15.0875 16.6667 15.8337 15.9205 15.8337 15C15.8337 14.0795 15.0875 13.3334 14.167 13.3334C13.2465 13.3334 12.5003 14.0795 12.5003 15C12.5003 15.9205 13.2465 16.6667 14.167 16.6667Z" fill="black"/>
</svg>
