<svg width="40" height="40" viewBox="0 0 40 40" fill="none" xmlns="http://www.w3.org/2000/svg">
<path d="M20 5.81818C23.9394 5.81818 27.2879 7.19697 30.0455 9.95455C32.803 12.7121 34.1818 16.0606 34.1818 20C34.1818 23.9394 32.803 27.2879 30.0455 30.0455C27.2879 32.803 23.9394 34.1818 20 34.1818C16.0606 34.1818 12.7121 32.803 9.95455 30.0455C7.19697 27.2879 5.81818 23.9394 5.81818 20C5.81818 16.0606 7.19697 12.7121 9.95455 9.95455C12.7121 7.19697 16.0606 5.81818 20 5.81818ZM20 31.4545C23.1515 31.4545 25.8485 30.3333 28.0909 28.0909C30.3333 25.8485 31.4545 23.1515 31.4545 20C31.4545 16.8485 30.3333 14.1515 28.0909 11.9091C25.8485 9.66667 23.1515 8.54545 20 8.54545C16.8485 8.54545 14.1515 9.66667 11.9091 11.9091C9.66667 14.1515 8.54545 16.8485 8.54545 20C8.54545 23.1515 9.66667 25.8485 11.9091 28.0909C14.1515 30.3333 16.8485 31.4545 20 31.4545ZM20 26.2273C21.4242 26.2273 22.7121 25.8333 23.8636 25.0455C25.0152 24.2576 25.8788 23.197 26.4545 21.8636H13.5455C14.0909 23.197 14.947 24.2576 16.1136 25.0455C17.2803 25.8333 18.5758 26.2273 20 26.2273ZM13.5455 16.1818C13.5455 16.6841 13.7153 17.1051 14.0551 17.4449C14.3949 17.7847 14.8159 17.9545 15.3182 17.9545C15.8205 17.9545 16.2415 17.7847 16.5813 17.4449C16.921 17.1051 17.0909 16.6841 17.0909 16.1818C17.0909 15.6795 16.921 15.2585 16.5813 14.9188C16.2415 14.579 15.8205 14.4091 15.3182 14.4091C14.8159 14.4091 14.3949 14.579 14.0551 14.9188C13.7153 15.2585 13.5455 15.6795 13.5455 16.1818ZM22.9091 16.1818C22.9091 16.6841 23.079 17.1051 23.4188 17.4449C23.7585 17.7847 24.1795 17.9545 24.6818 17.9545C25.1841 17.9545 25.6051 17.7847 25.9449 17.4449C26.2847 17.1051 26.4545 16.6841 26.4545 16.1818C26.4545 15.6795 26.2847 15.2585 25.9449 14.9188C25.6051 14.579 25.1841 14.4091 24.6818 14.4091C24.1795 14.4091 23.7585 14.579 23.4188 14.9188C23.079 15.2585 22.9091 15.6795 22.9091 16.1818ZM0 8.59091V5.09091C0 3.69697 0.5 2.5 1.5 1.5C2.5 0.5 3.69697 0 5.09091 0H8.59091V2.72727H5.09091C4.42121 2.72727 3.85985 2.95379 3.40682 3.40682C2.95379 3.85985 2.72727 4.42121 2.72727 5.09091V8.59091H0ZM5.09091 40C3.69697 40 2.5 39.5 1.5 38.5C0.5 37.5 0 36.303 0 34.9091V31.4091H2.72727V34.9091C2.72727 35.5788 2.95379 36.1402 3.40682 36.5932C3.85985 37.0462 4.42121 37.2727 5.09091 37.2727H8.59091V40H5.09091ZM31.4091 39.8182V37.0909H34.9091C35.5788 37.0909 36.1402 36.8644 36.5932 36.4114C37.0462 35.9583 37.2727 35.397 37.2727 34.7273V31.1818H40V34.7273C40 36.1212 39.5 37.3182 38.5 38.3182C37.5 39.3182 36.303 39.8182 34.9091 39.8182H31.4091ZM37.2727 8.59091V5.09091C37.2727 4.42121 37.0462 3.85985 36.5932 3.40682C36.1402 2.95379 35.5788 2.72727 34.9091 2.72727H31.4091V0H34.9091C36.303 0 37.5 0.5 38.5 1.5C39.5 2.5 40 3.69697 40 5.09091V8.59091H37.2727Z" fill="white"/>
</svg>
