<svg width="20" height="20" viewBox="0 0 20 20" fill="none" xmlns="http://www.w3.org/2000/svg">
<path d="M10 18.3333C5.39765 18.3333 1.66669 14.6023 1.66669 10C1.66669 5.39763 5.39765 1.66667 10 1.66667C14.6024 1.66667 18.3334 5.39763 18.3334 10C18.3334 14.6023 14.6024 18.3333 10 18.3333ZM10 16.6667C13.6819 16.6667 16.6667 13.6819 16.6667 10C16.6667 6.3181 13.6819 3.33333 10 3.33333C6.31812 3.33333 3.33335 6.3181 3.33335 10C3.33335 13.6819 6.31812 16.6667 10 16.6667ZM10.8334 8.75V12.5H11.6667V14.1667H8.33335V12.5H9.16669V10.4167H8.33335V8.75H10.8334ZM11.25 6.66667C11.25 7.35703 10.6904 7.91667 10 7.91667C9.30969 7.91667 8.75002 7.35703 8.75002 6.66667C8.75002 5.97631 9.30969 5.41667 10 5.41667C10.6904 5.41667 11.25 5.97631 11.25 6.66667Z" fill="black"/>
</svg>
